<svg width="1009" height="570" viewBox="0 0 1009 570" fill="none" xmlns="http://www.w3.org/2000/svg">
<rect width="1009" height="570" rx="86" fill="#150E41"/>
<path d="M362.968 279.032V308.312C362.968 310.296 363.416 311.736 364.312 312.632C365.272 313.464 366.872 313.88 369.112 313.88H375.832V323H367.192C362.264 323 358.488 321.848 355.864 319.544C353.24 317.24 351.928 313.496 351.928 308.312V279.032H345.688V270.104H351.928V256.952H362.968V270.104H375.832V279.032H362.968Z" fill="white"/>
<path d="M395.902 277.784C397.502 275.096 399.614 273.016 402.238 271.544C404.926 270.008 408.094 269.24 411.742 269.24V280.568H408.958C404.67 280.568 401.406 281.656 399.166 283.832C396.99 286.008 395.902 289.784 395.902 295.16V323H384.958V270.104H395.902V277.784Z" fill="white"/>
<path d="M417.194 296.312C417.194 291 418.282 286.296 420.458 282.2C422.698 278.104 425.706 274.936 429.482 272.696C433.322 270.392 437.546 269.24 442.154 269.24C446.314 269.24 449.93 270.072 453.002 271.736C456.138 273.336 458.634 275.352 460.49 277.784V270.104H471.53V323H460.49V315.128C458.634 317.624 456.106 319.704 452.906 321.368C449.706 323.032 446.058 323.864 441.962 323.864C437.418 323.864 433.258 322.712 429.482 320.408C425.706 318.04 422.698 314.776 420.458 310.616C418.282 306.392 417.194 301.624 417.194 296.312ZM460.49 296.504C460.49 292.856 459.722 289.688 458.186 287C456.714 284.312 454.762 282.264 452.33 280.856C449.898 279.448 447.274 278.744 444.458 278.744C441.642 278.744 439.018 279.448 436.586 280.856C434.154 282.2 432.17 284.216 430.634 286.904C429.162 289.528 428.426 292.664 428.426 296.312C428.426 299.96 429.162 303.16 430.634 305.912C432.17 308.664 434.154 310.776 436.586 312.248C439.082 313.656 441.706 314.36 444.458 314.36C447.274 314.36 449.898 313.656 452.33 312.248C454.762 310.84 456.714 308.792 458.186 306.104C459.722 303.352 460.49 300.152 460.49 296.504Z" fill="white"/>
<path d="M481.296 296.312C481.296 291 482.384 286.296 484.56 282.2C486.8 278.104 489.808 274.936 493.584 272.696C497.424 270.392 501.68 269.24 506.352 269.24C509.809 269.24 513.2 270.008 516.528 271.544C519.92 273.016 522.608 275 524.592 277.496V251.96H535.632V323H524.592V315.032C522.8 317.592 520.304 319.704 517.104 321.368C513.968 323.032 510.353 323.864 506.257 323.864C501.648 323.864 497.424 322.712 493.584 320.408C489.808 318.04 486.8 314.776 484.56 310.616C482.384 306.392 481.296 301.624 481.296 296.312ZM524.592 296.504C524.592 292.856 523.824 289.688 522.288 287C520.816 284.312 518.865 282.264 516.432 280.856C514 279.448 511.376 278.744 508.56 278.744C505.744 278.744 503.12 279.448 500.688 280.856C498.256 282.2 496.272 284.216 494.736 286.904C493.264 289.528 492.528 292.664 492.528 296.312C492.528 299.96 493.264 303.16 494.736 305.912C496.272 308.664 498.256 310.776 500.688 312.248C503.184 313.656 505.808 314.36 508.56 314.36C511.376 314.36 514 313.656 516.432 312.248C518.865 310.84 520.816 308.792 522.288 306.104C523.824 303.352 524.592 300.152 524.592 296.504Z" fill="white"/>
<path d="M597.527 295.256C597.527 297.24 597.399 299.032 597.143 300.632H556.727C557.047 304.856 558.615 308.248 561.431 310.808C564.247 313.368 567.703 314.648 571.799 314.648C577.687 314.648 581.847 312.184 584.279 307.256H596.087C594.487 312.12 591.575 316.12 587.351 319.256C583.191 322.328 578.007 323.864 571.799 323.864C566.743 323.864 562.199 322.744 558.167 320.504C554.199 318.2 551.063 315 548.759 310.904C546.519 306.744 545.399 301.944 545.399 296.504C545.399 291.064 546.487 286.296 548.663 282.2C550.903 278.04 554.007 274.84 557.975 272.6C562.007 270.36 566.615 269.24 571.799 269.24C576.791 269.24 581.239 270.328 585.143 272.504C589.047 274.68 592.087 277.752 594.263 281.72C596.439 285.624 597.527 290.136 597.527 295.256ZM586.103 291.8C586.039 287.768 584.599 284.536 581.783 282.104C578.967 279.672 575.479 278.456 571.319 278.456C567.543 278.456 564.311 279.672 561.623 282.104C558.935 284.472 557.335 287.704 556.823 291.8H586.103Z" fill="white"/>
<path d="M611.945 308.12C618.089 302.808 622.921 298.456 626.441 295.064C630.025 291.608 633.001 288.024 635.369 284.312C637.737 280.6 638.921 276.888 638.921 273.176C638.921 269.336 637.993 266.328 636.137 264.152C634.345 261.976 631.497 260.888 627.593 260.888C623.817 260.888 620.873 262.104 618.761 264.536C616.713 266.904 615.625 270.104 615.497 274.136H604.937C605.129 266.84 607.305 261.272 611.465 257.432C615.689 253.528 621.033 251.576 627.497 251.576C634.473 251.576 639.913 253.496 643.817 257.336C647.785 261.176 649.769 266.296 649.769 272.696C649.769 277.304 648.585 281.752 646.217 286.04C643.913 290.264 641.129 294.072 637.865 297.464C634.665 300.792 630.569 304.664 625.577 309.08L621.257 312.92H651.689V322.04H605.033V314.072L611.945 308.12Z" fill="white"/>
<path d="M658.999 308.408V300.152L691.255 253.88H704.503V298.904H713.431V308.408H704.503V323H693.751V308.408H658.999ZM694.231 265.016L671.575 298.904H694.231V265.016Z" fill="white"/>
<path d="M727.396 323.672C725.411 323.672 723.747 323 722.404 321.656C721.06 320.312 720.388 318.648 720.388 316.664C720.388 314.68 721.06 313.016 722.404 311.672C723.747 310.328 725.411 309.656 727.396 309.656C729.316 309.656 730.948 310.328 732.292 311.672C733.635 313.016 734.308 314.68 734.308 316.664C734.308 318.648 733.635 320.312 732.292 321.656C730.948 323 729.316 323.672 727.396 323.672Z" fill="white"/>
<path d="M741.528 296.312C741.528 291 742.616 286.296 744.792 282.2C747.032 278.104 750.04 274.936 753.816 272.696C757.656 270.392 761.88 269.24 766.488 269.24C770.648 269.24 774.264 270.072 777.336 271.736C780.472 273.336 782.968 275.352 784.824 277.784V270.104H795.864V323H784.824V315.128C782.968 317.624 780.44 319.704 777.24 321.368C774.04 323.032 770.392 323.864 766.296 323.864C761.752 323.864 757.592 322.712 753.816 320.408C750.04 318.04 747.032 314.776 744.792 310.616C742.616 306.392 741.528 301.624 741.528 296.312ZM784.824 296.504C784.824 292.856 784.056 289.688 782.52 287C781.048 284.312 779.096 282.264 776.664 280.856C774.232 279.448 771.608 278.744 768.792 278.744C765.976 278.744 763.352 279.448 760.92 280.856C758.488 282.2 756.504 284.216 754.968 286.904C753.496 289.528 752.76 292.664 752.76 296.312C752.76 299.96 753.496 303.16 754.968 305.912C756.504 308.664 758.488 310.776 760.92 312.248C763.416 313.656 766.04 314.36 768.792 314.36C771.608 314.36 774.232 313.656 776.664 312.248C779.096 310.84 781.048 308.792 782.52 306.104C784.056 303.352 784.824 300.152 784.824 296.504Z" fill="white"/>
<path d="M814.846 263.096C812.862 263.096 811.198 262.424 809.854 261.08C808.51 259.736 807.838 258.072 807.838 256.088C807.838 254.104 808.51 252.44 809.854 251.096C811.198 249.752 812.862 249.08 814.846 249.08C816.766 249.08 818.398 249.752 819.742 251.096C821.086 252.44 821.758 254.104 821.758 256.088C821.758 258.072 821.086 259.736 819.742 261.08C818.398 262.424 816.766 263.096 814.846 263.096ZM820.222 270.104V323H809.278V270.104H820.222Z" fill="white"/>
<path d="M146.672 308.12C152.816 302.808 157.648 298.456 161.168 295.064C164.752 291.608 167.728 288.024 170.096 284.312C172.464 280.6 173.648 276.888 173.648 273.176C173.648 269.336 172.72 266.328 170.864 264.152C169.072 261.976 166.224 260.888 162.32 260.888C158.544 260.888 155.6 262.104 153.488 264.536C151.44 266.904 150.352 270.104 150.224 274.136H139.664C139.856 266.84 142.032 261.272 146.192 257.432C150.416 253.528 155.76 251.576 162.224 251.576C169.2 251.576 174.64 253.496 178.544 257.336C182.512 261.176 184.496 266.296 184.496 272.696C184.496 277.304 183.312 281.752 180.944 286.04C178.64 290.264 175.856 294.072 172.592 297.464C169.392 300.792 165.296 304.664 160.304 309.08L155.984 312.92H186.416V322.04H139.76V314.072L146.672 308.12Z" fill="url(#paint0_linear_44_218)"/>
<path d="M189.886 308.408V300.152L222.142 253.88H235.39V298.904H244.318V308.408H235.39V323H224.638V308.408H189.886ZM225.118 265.016L202.462 298.904H225.118V265.016Z" fill="url(#paint1_linear_44_218)"/>
<path fill-rule="evenodd" clip-rule="evenodd" d="M280.908 283.91C279.038 284.402 277.124 283.286 276.632 281.417C270.122 256.698 254.476 239.759 234.216 231.527C213.892 223.27 188.627 223.664 162.876 234.3C161.089 235.038 159.043 234.188 158.305 232.402C157.567 230.615 158.417 228.568 160.204 227.831C187.364 216.613 214.555 215.983 236.851 225.042C259.209 234.127 276.346 252.845 283.401 279.634C283.893 281.503 282.777 283.418 280.908 283.91Z" fill="url(#paint2_angular_44_218)"/>
<path fill-rule="evenodd" clip-rule="evenodd" d="M138.427 244.069C139.494 245.681 139.052 247.852 137.44 248.919C111.871 265.838 101.504 285.723 101.135 303.798C100.765 321.951 110.453 339.08 126.617 350.531C158.703 373.263 216.741 373.491 267.917 311.003C269.142 309.507 271.347 309.288 272.843 310.513C274.338 311.738 274.558 313.943 273.333 315.438C220.337 380.148 158.271 381.536 122.57 356.242C104.839 343.681 93.712 324.501 94.1367 303.656C94.5631 282.733 106.6 260.932 133.577 243.081C135.189 242.014 137.36 242.457 138.427 244.069Z" fill="url(#paint3_angular_44_218)"/>
<path fill-rule="evenodd" clip-rule="evenodd" d="M258.926 307.513C260.852 307.679 262.279 309.374 262.113 311.3C259.474 341.966 250.333 362.268 237.3 374.211C224.19 386.225 207.667 389.3 191.413 386.576C175.225 383.864 159.137 375.397 146.296 364.053C133.472 352.722 123.589 338.251 120.211 323.263C119.786 321.378 120.971 319.505 122.856 319.08C124.742 318.655 126.615 319.839 127.04 321.724C130.009 334.897 138.876 348.156 150.931 358.807C162.971 369.444 177.892 377.213 192.57 379.673C207.181 382.121 221.379 379.306 232.571 369.05C243.841 358.723 252.585 340.378 255.139 310.7C255.304 308.774 257 307.347 258.926 307.513Z" fill="url(#paint4_angular_44_218)"/>
<path d="M131.625 314C131.625 318.971 127.596 323 122.625 323C117.654 323 113.625 318.971 113.625 314C113.625 309.029 117.654 305 122.625 305C127.596 305 131.625 309.029 131.625 314Z" fill="#2F0DFF"/>
<path fill-rule="evenodd" clip-rule="evenodd" d="M140.749 210.015C149.146 204.288 158.584 200.298 168.526 198.274C178.467 196.25 188.714 196.232 198.682 198.22C208.649 200.208 218.139 204.162 226.612 209.855C235.084 215.547 242.373 222.866 248.064 231.392C253.756 239.918 257.739 249.485 259.787 259.547C260.173 261.441 258.95 263.29 257.056 263.675C255.162 264.061 253.314 262.838 252.928 260.944C251.06 251.769 247.429 243.048 242.242 235.278C237.056 227.509 230.418 220.845 222.708 215.665C214.998 210.485 206.369 206.891 197.313 205.085C188.256 203.279 178.949 203.295 169.922 205.133C160.895 206.971 152.323 210.594 144.693 215.798C137.064 221.001 130.527 227.683 125.456 235.465C120.385 243.247 116.881 251.976 115.145 261.154C113.409 270.333 113.477 279.78 115.345 288.955C115.731 290.849 114.508 292.697 112.613 293.083C110.719 293.468 108.871 292.245 108.486 290.351C106.437 280.289 106.362 269.926 108.267 259.854C110.172 249.781 114.019 240.195 119.591 231.643C125.164 223.091 132.353 215.741 140.749 210.015Z" fill="url(#paint5_angular_44_218)"/>
<defs>
<linearGradient id="paint0_linear_44_218" x1="134.627" y1="249" x2="249.812" y2="326.763" gradientUnits="userSpaceOnUse">
<stop stop-color="#2F0DFF"/>
<stop offset="1" stop-color="#EB00FF"/>
</linearGradient>
<linearGradient id="paint1_linear_44_218" x1="134.627" y1="249" x2="249.812" y2="326.763" gradientUnits="userSpaceOnUse">
<stop stop-color="#2F0DFF"/>
<stop offset="1" stop-color="#EB00FF"/>
</linearGradient>
<radialGradient id="paint2_angular_44_218" cx="0" cy="0" r="1" gradientUnits="userSpaceOnUse" gradientTransform="translate(216.751 255.796) rotate(22.249) scale(68.3518 42.8176)">
<stop offset="0.478015" stop-color="#060028" stop-opacity="0"/>
<stop offset="0.987794" stop-color="#EB00FF"/>
</radialGradient>
<radialGradient id="paint3_angular_44_218" cx="0" cy="0" r="1" gradientUnits="userSpaceOnUse" gradientTransform="translate(180.596 293.394) rotate(-69.0595) scale(68.525 89.7414)">
<stop offset="0.197972" stop-color="#EB00FF"/>
<stop offset="0.983388" stop-color="#060028" stop-opacity="0"/>
</radialGradient>
<radialGradient id="paint4_angular_44_218" cx="0" cy="0" r="1" gradientUnits="userSpaceOnUse" gradientTransform="translate(194.01 327.092) rotate(177.149) scale(69.3166 57.9714)">
<stop offset="0.515935" stop-color="#060028" stop-opacity="0"/>
<stop offset="0.990018" stop-color="#2F0DFF"/>
</radialGradient>
<radialGradient id="paint5_angular_44_218" cx="0" cy="0" r="1" gradientUnits="userSpaceOnUse" gradientTransform="translate(165.884 237.972) rotate(63.7286) scale(41.2368 81.3201)">
<stop offset="0.149754" stop-color="#2F0DFF"/>
<stop offset="0.915519" stop-color="#150E41" stop-opacity="0"/>
</radialGradient>
</defs>
</svg>
