<svg width="685" height="570" viewBox="0 0 685 570" fill="none" xmlns="http://www.w3.org/2000/svg">
<rect width="685" height="570" fill="#150E41"/>
<path d="M147.738 256.28V265.208H129.978V323H119.034V265.208H101.178V256.28H147.738Z" fill="white"/>
<path d="M168.805 277.784C170.405 275.096 172.517 273.016 175.141 271.544C177.829 270.008 180.997 269.24 184.645 269.24V280.568H181.861C177.573 280.568 174.309 281.656 172.069 283.832C169.893 286.008 168.805 289.784 168.805 295.16V323H157.861V270.104H168.805V277.784Z" fill="white"/>
<path d="M190.097 296.312C190.097 291 191.185 286.296 193.361 282.2C195.601 278.104 198.609 274.936 202.385 272.696C206.225 270.392 210.449 269.24 215.057 269.24C219.217 269.24 222.833 270.072 225.905 271.736C229.041 273.336 231.537 275.352 233.393 277.784V270.104H244.433V323H233.393V315.128C231.537 317.624 229.009 319.704 225.809 321.368C222.609 323.032 218.961 323.864 214.865 323.864C210.321 323.864 206.161 322.712 202.385 320.408C198.609 318.04 195.601 314.776 193.361 310.616C191.185 306.392 190.097 301.624 190.097 296.312ZM233.393 296.504C233.393 292.856 232.625 289.688 231.089 287C229.617 284.312 227.665 282.264 225.233 280.856C222.801 279.448 220.177 278.744 217.361 278.744C214.545 278.744 211.921 279.448 209.489 280.856C207.057 282.2 205.073 284.216 203.537 286.904C202.065 289.528 201.329 292.664 201.329 296.312C201.329 299.96 202.065 303.16 203.537 305.912C205.073 308.664 207.057 310.776 209.489 312.248C211.985 313.656 214.609 314.36 217.361 314.36C220.177 314.36 222.801 313.656 225.233 312.248C227.665 310.84 229.617 308.792 231.089 306.104C232.625 303.352 233.393 300.152 233.393 296.504Z" fill="white"/>
<path d="M254.199 296.312C254.199 291 255.287 286.296 257.463 282.2C259.703 278.104 262.711 274.936 266.487 272.696C270.327 270.392 274.583 269.24 279.255 269.24C282.711 269.24 286.103 270.008 289.431 271.544C292.823 273.016 295.511 275 297.495 277.496V251.96H308.535V323H297.495V315.032C295.703 317.592 293.207 319.704 290.007 321.368C286.871 323.032 283.255 323.864 279.159 323.864C274.551 323.864 270.327 322.712 266.487 320.408C262.711 318.04 259.703 314.776 257.463 310.616C255.287 306.392 254.199 301.624 254.199 296.312ZM297.495 296.504C297.495 292.856 296.727 289.688 295.191 287C293.719 284.312 291.767 282.264 289.335 280.856C286.903 279.448 284.279 278.744 281.463 278.744C278.647 278.744 276.023 279.448 273.591 280.856C271.159 282.2 269.175 284.216 267.639 286.904C266.167 289.528 265.431 292.664 265.431 296.312C265.431 299.96 266.167 303.16 267.639 305.912C269.175 308.664 271.159 310.776 273.591 312.248C276.087 313.656 278.711 314.36 281.463 314.36C284.279 314.36 286.903 313.656 289.335 312.248C291.767 310.84 293.719 308.792 295.191 306.104C296.727 303.352 297.495 300.152 297.495 296.504Z" fill="white"/>
<path d="M370.43 295.256C370.43 297.24 370.302 299.032 370.046 300.632H329.63C329.95 304.856 331.518 308.248 334.334 310.808C337.15 313.368 340.606 314.648 344.702 314.648C350.59 314.648 354.75 312.184 357.182 307.256H368.99C367.39 312.12 364.478 316.12 360.254 319.256C356.094 322.328 350.91 323.864 344.702 323.864C339.646 323.864 335.102 322.744 331.07 320.504C327.102 318.2 323.966 315 321.662 310.904C319.422 306.744 318.302 301.944 318.302 296.504C318.302 291.064 319.39 286.296 321.566 282.2C323.806 278.04 326.91 274.84 330.878 272.6C334.91 270.36 339.518 269.24 344.702 269.24C349.694 269.24 354.142 270.328 358.046 272.504C361.95 274.68 364.99 277.752 367.166 281.72C369.342 285.624 370.43 290.136 370.43 295.256ZM359.006 291.8C358.942 287.768 357.502 284.536 354.686 282.104C351.87 279.672 348.382 278.456 344.222 278.456C340.446 278.456 337.214 279.672 334.526 282.104C331.838 284.472 330.238 287.704 329.726 291.8H359.006Z" fill="white"/>
<path d="M449.045 308.12C455.189 302.808 460.021 298.456 463.541 295.064C467.125 291.608 470.101 288.024 472.469 284.312C474.837 280.6 476.021 276.888 476.021 273.176C476.021 269.336 475.093 266.328 473.237 264.152C471.445 261.976 468.597 260.888 464.693 260.888C460.917 260.888 457.973 262.104 455.861 264.536C453.813 266.904 452.725 270.104 452.597 274.136H442.037C442.229 266.84 444.405 261.272 448.565 257.432C452.789 253.528 458.133 251.576 464.597 251.576C471.573 251.576 477.013 253.496 480.917 257.336C484.885 261.176 486.869 266.296 486.869 272.696C486.869 277.304 485.685 281.752 483.317 286.04C481.013 290.264 478.229 294.072 474.965 297.464C471.765 300.792 467.669 304.664 462.677 309.08L458.357 312.92H488.789V322.04H442.133V314.072L449.045 308.12Z" fill="url(#paint0_linear_44_202)"/>
<path d="M492.259 308.408V300.152L524.515 253.88H537.763V298.904H546.691V308.408H537.763V323H527.011V308.408H492.259ZM527.491 265.016L504.835 298.904H527.491V265.016Z" fill="url(#paint1_linear_44_202)"/>
<path fill-rule="evenodd" clip-rule="evenodd" d="M583.281 283.91C581.412 284.402 579.497 283.286 579.005 281.417C572.495 256.698 556.849 239.759 536.589 231.527C516.265 223.27 491 223.664 465.249 234.3C463.462 235.038 461.416 234.188 460.678 232.402C459.94 230.615 460.79 228.568 462.577 227.831C489.737 216.613 516.928 215.983 539.224 225.042C561.582 234.127 578.719 252.845 585.774 279.634C586.266 281.503 585.15 283.418 583.281 283.91Z" fill="url(#paint2_angular_44_202)"/>
<path fill-rule="evenodd" clip-rule="evenodd" d="M440.802 244.069C441.869 245.681 441.427 247.852 439.815 248.919C414.246 265.838 403.879 285.723 403.51 303.798C403.14 321.951 412.828 339.08 428.992 350.531C461.078 373.263 519.116 373.491 570.292 311.003C571.517 309.507 573.722 309.288 575.218 310.513C576.713 311.738 576.933 313.943 575.708 315.438C522.712 380.148 460.646 381.536 424.945 356.242C407.214 343.681 396.087 324.501 396.512 303.656C396.938 282.733 408.975 260.932 435.952 243.081C437.564 242.014 439.735 242.457 440.802 244.069Z" fill="url(#paint3_angular_44_202)"/>
<path fill-rule="evenodd" clip-rule="evenodd" d="M561.3 307.513C563.226 307.679 564.653 309.374 564.487 311.3C561.848 341.966 552.707 362.268 539.674 374.211C526.564 386.225 510.041 389.3 493.787 386.576C477.599 383.864 461.511 375.397 448.67 364.053C435.846 352.722 425.963 338.251 422.585 323.263C422.16 321.378 423.345 319.505 425.23 319.08C427.116 318.655 428.989 319.839 429.414 321.724C432.383 334.897 441.25 348.156 453.305 358.807C465.345 369.444 480.266 377.213 494.944 379.673C509.555 382.121 523.753 379.306 534.945 369.05C546.215 358.723 554.959 340.378 557.513 310.7C557.678 308.774 559.374 307.347 561.3 307.513Z" fill="url(#paint4_angular_44_202)"/>
<path d="M434 314C434 318.971 429.971 323 425 323C420.029 323 416 318.971 416 314C416 309.029 420.029 305 425 305C429.971 305 434 309.029 434 314Z" fill="#2F0DFF"/>
<path fill-rule="evenodd" clip-rule="evenodd" d="M443.124 210.015C451.521 204.288 460.959 200.298 470.901 198.274C480.842 196.25 491.089 196.232 501.057 198.22C511.024 200.208 520.514 204.162 528.987 209.855C537.459 215.547 544.748 222.866 550.439 231.392C556.131 239.918 560.114 249.485 562.162 259.547C562.548 261.441 561.325 263.29 559.431 263.675C557.537 264.061 555.689 262.838 555.303 260.944C553.435 251.769 549.804 243.048 544.617 235.278C539.431 227.509 532.793 220.845 525.083 215.665C517.373 210.485 508.744 206.891 499.688 205.085C490.631 203.279 481.324 203.295 472.297 205.133C463.27 206.971 454.698 210.594 447.068 215.798C439.439 221.001 432.902 227.683 427.831 235.465C422.76 243.247 419.256 251.976 417.52 261.154C415.784 270.333 415.852 279.78 417.72 288.955C418.106 290.849 416.883 292.697 414.988 293.083C413.094 293.468 411.246 292.245 410.861 290.351C408.812 280.289 408.737 269.926 410.642 259.854C412.547 249.781 416.394 240.195 421.966 231.643C427.539 223.091 434.728 215.741 443.124 210.015Z" fill="url(#paint5_angular_44_202)"/>
<defs>
<linearGradient id="paint0_linear_44_202" x1="437" y1="249" x2="552.185" y2="326.763" gradientUnits="userSpaceOnUse">
<stop stop-color="#2F0DFF"/>
<stop offset="1" stop-color="#EB00FF"/>
</linearGradient>
<linearGradient id="paint1_linear_44_202" x1="437" y1="249" x2="552.185" y2="326.763" gradientUnits="userSpaceOnUse">
<stop stop-color="#2F0DFF"/>
<stop offset="1" stop-color="#EB00FF"/>
</linearGradient>
<radialGradient id="paint2_angular_44_202" cx="0" cy="0" r="1" gradientUnits="userSpaceOnUse" gradientTransform="translate(519.124 255.796) rotate(22.249) scale(68.3518 42.8176)">
<stop offset="0.478015" stop-color="#060028" stop-opacity="0"/>
<stop offset="0.987794" stop-color="#EB00FF"/>
</radialGradient>
<radialGradient id="paint3_angular_44_202" cx="0" cy="0" r="1" gradientUnits="userSpaceOnUse" gradientTransform="translate(482.971 293.394) rotate(-69.0595) scale(68.525 89.7414)">
<stop offset="0.197972" stop-color="#EB00FF"/>
<stop offset="0.983388" stop-color="#060028" stop-opacity="0"/>
</radialGradient>
<radialGradient id="paint4_angular_44_202" cx="0" cy="0" r="1" gradientUnits="userSpaceOnUse" gradientTransform="translate(496.384 327.092) rotate(177.149) scale(69.3166 57.9714)">
<stop offset="0.515935" stop-color="#060028" stop-opacity="0"/>
<stop offset="0.990018" stop-color="#2F0DFF"/>
</radialGradient>
<radialGradient id="paint5_angular_44_202" cx="0" cy="0" r="1" gradientUnits="userSpaceOnUse" gradientTransform="translate(468.259 237.972) rotate(63.7286) scale(41.2368 81.3201)">
<stop offset="0.149754" stop-color="#2F0DFF"/>
<stop offset="0.915519" stop-color="#150E41" stop-opacity="0"/>
</radialGradient>
</defs>
</svg>
