<svg width="570" height="570" viewBox="0 0 570 570" fill="none" xmlns="http://www.w3.org/2000/svg">
<rect width="570" height="570" fill="#150E41"/>
<path d="M184.345 333.592C197.693 322.005 208.192 312.513 215.839 305.114C223.626 297.575 230.092 289.758 235.236 281.661C240.381 273.564 242.954 265.467 242.954 257.371C242.954 248.995 240.937 242.433 236.905 237.687C233.012 232.941 226.824 230.567 218.342 230.567C210.138 230.567 203.742 233.22 199.153 238.525C194.704 243.69 192.34 250.67 192.062 259.465H169.119C169.536 243.55 174.264 231.405 183.302 223.029C192.479 214.513 204.09 210.256 218.134 210.256C233.29 210.256 245.109 214.444 253.591 222.82C262.212 231.196 266.522 242.364 266.522 256.324C266.522 266.375 263.95 276.077 258.805 285.43C253.799 294.644 247.751 302.95 240.659 310.349C233.707 317.608 224.808 326.054 213.962 335.686L204.576 344.062H270.694V363.955H169.328V346.575L184.345 333.592Z" fill="url(#paint0_linear_44_179)"/>
<path d="M278.233 334.22V316.212L348.313 215.281H377.096V313.49H396.493V334.22H377.096V366.049H353.736V334.22H278.233ZM354.779 239.572L305.556 313.49H354.779V239.572Z" fill="url(#paint1_linear_44_179)"/>
<path fill-rule="evenodd" clip-rule="evenodd" d="M475.086 280.739C471.039 281.805 466.894 279.388 465.829 275.342C451.736 221.828 417.864 185.156 374.001 167.335C330.002 149.458 275.305 150.312 219.556 173.338C215.688 174.936 211.258 173.095 209.66 169.227C208.063 165.36 209.903 160.929 213.771 159.332C272.571 135.045 331.437 133.683 379.706 153.295C428.111 172.962 465.21 213.485 480.484 271.482C481.549 275.529 479.133 279.674 475.086 280.739Z" fill="url(#paint2_angular_44_179)"/>
<path fill-rule="evenodd" clip-rule="evenodd" d="M166.905 194.003C169.217 197.493 168.259 202.194 164.764 204.504C109.34 241.132 86.8657 284.184 86.0673 323.317C85.2654 362.617 106.266 399.701 141.303 424.493C210.857 473.708 336.666 474.202 447.6 338.915C450.255 335.678 455.035 335.203 458.277 337.854C461.518 340.506 461.994 345.28 459.339 348.518C344.461 488.614 209.921 491.618 132.531 436.859C94.0963 409.663 69.9758 368.139 70.8966 323.009C71.8208 277.712 97.9131 230.512 156.391 191.865C159.885 189.556 164.592 190.513 166.905 194.003Z" fill="url(#paint3_angular_44_179)"/>
<path fill-rule="evenodd" clip-rule="evenodd" d="M427.462 332.392C431.631 332.75 434.719 336.409 434.361 340.565C428.649 406.741 408.863 450.554 380.652 476.326C352.272 502.251 316.506 508.888 281.323 503.01C246.282 497.156 211.457 478.886 183.663 454.404C155.903 429.952 134.511 398.725 127.2 366.382C126.28 362.312 128.843 358.27 132.925 357.353C137.007 356.436 141.061 358.991 141.981 363.061C148.407 391.486 167.601 420.099 193.696 443.084C219.757 466.039 252.056 482.804 283.827 488.112C315.455 493.396 346.188 487.32 370.415 465.189C394.81 442.903 413.737 403.314 419.264 339.27C419.623 335.114 423.293 332.035 427.462 332.392Z" fill="url(#paint4_angular_44_179)"/>
<path d="M498.952 289.556C498.952 300.021 490.154 308.504 479.302 308.504C468.45 308.504 459.652 300.021 459.652 289.556C459.652 279.091 468.45 270.608 479.302 270.608C490.154 270.608 498.952 279.091 498.952 289.556Z" fill="#EB00FF"/>
<path d="M152.277 346.4C152.277 357.252 143.479 366.049 132.627 366.049C121.775 366.049 112.978 357.252 112.978 346.4C112.978 335.547 121.775 326.75 132.627 326.75C143.479 326.75 152.277 335.547 152.277 346.4Z" fill="#2F0DFF"/>
<path fill-rule="evenodd" clip-rule="evenodd" d="M171.658 120.761C189.836 108.364 210.269 99.726 231.792 95.3442C253.314 90.9624 275.498 90.9234 297.076 95.227C318.654 99.5305 339.2 108.091 357.543 120.415C375.885 132.739 391.665 148.583 403.986 167.041C416.307 185.499 424.93 206.211 429.365 227.996C430.2 232.097 427.553 236.098 423.452 236.932C419.351 237.767 415.35 235.12 414.515 231.019C410.471 211.156 402.61 192.275 391.382 175.455C380.154 158.635 365.782 144.208 349.092 132.994C332.401 121.78 313.718 113.999 294.112 110.089C274.507 106.179 254.358 106.215 234.815 110.194C215.272 114.173 196.713 122.017 180.196 133.281C163.68 144.546 149.527 159.012 138.549 175.859C127.571 192.706 119.984 211.604 116.227 231.475C112.469 251.346 112.615 271.798 116.659 291.661C117.494 295.761 114.847 299.762 110.746 300.597C106.645 301.432 102.644 298.785 101.809 294.684C97.3741 272.9 97.2125 250.465 101.336 228.659C105.46 206.853 113.788 186.1 125.852 167.586C137.916 149.071 153.48 133.159 171.658 120.761Z" fill="url(#paint5_angular_44_179)"/>
<defs>
<linearGradient id="paint0_linear_44_179" x1="158.174" y1="204.637" x2="409.048" y2="373.336" gradientUnits="userSpaceOnUse">
<stop stop-color="#2F0DFF"/>
<stop offset="1" stop-color="#EB00FF"/>
</linearGradient>
<linearGradient id="paint1_linear_44_179" x1="158.174" y1="204.637" x2="409.048" y2="373.336" gradientUnits="userSpaceOnUse">
<stop stop-color="#2F0DFF"/>
<stop offset="1" stop-color="#EB00FF"/>
</linearGradient>
<radialGradient id="paint2_angular_44_179" cx="0" cy="0" r="1" gradientUnits="userSpaceOnUse" gradientTransform="translate(336.193 219.874) rotate(22.249) scale(147.976 92.6967)">
<stop offset="0.478015" stop-color="#060028" stop-opacity="0"/>
<stop offset="0.987794" stop-color="#EB00FF"/>
</radialGradient>
<radialGradient id="paint3_angular_44_179" cx="0" cy="0" r="1" gradientUnits="userSpaceOnUse" gradientTransform="translate(258.313 300.792) rotate(-69.0357) scale(148.38 194.501)">
<stop offset="0.197972" stop-color="#EB00FF"/>
<stop offset="0.983388" stop-color="#060028" stop-opacity="0"/>
</radialGradient>
<radialGradient id="paint4_angular_44_179" cx="0" cy="0" r="1" gradientUnits="userSpaceOnUse" gradientTransform="translate(286.946 374.643) rotate(177.157) scale(150.042 125.102)">
<stop offset="0.515935" stop-color="#060028" stop-opacity="0"/>
<stop offset="0.990018" stop-color="#2F0DFF"/>
</radialGradient>
<radialGradient id="paint5_angular_44_179" cx="0" cy="0" r="1" gradientUnits="userSpaceOnUse" gradientTransform="translate(226.072 181.287) rotate(63.7286) scale(89.2744 176.051)">
<stop offset="0.149754" stop-color="#2F0DFF"/>
<stop offset="0.915519" stop-color="#150E41" stop-opacity="0"/>
</radialGradient>
</defs>
</svg>
