<svg width="1009" height="570" viewBox="0 0 1009 570" fill="none" xmlns="http://www.w3.org/2000/svg">
<rect width="1009" height="570" fill="#150E41"/>
<path d="M362.968 279.032V308.312C362.968 310.296 363.416 311.736 364.312 312.632C365.272 313.464 366.872 313.88 369.112 313.88H375.832V323H367.192C362.264 323 358.488 321.848 355.864 319.544C353.24 317.24 351.928 313.496 351.928 308.312V279.032H345.688V270.104H351.928V256.952H362.968V270.104H375.832V279.032H362.968ZM395.903 277.784C397.503 275.096 399.615 273.016 402.239 271.544C404.927 270.008 408.095 269.24 411.743 269.24V280.568H408.959C404.671 280.568 401.407 281.656 399.167 283.832C396.991 286.008 395.903 289.784 395.903 295.16V323H384.959V270.104H395.903V277.784ZM417.195 296.312C417.195 291 418.283 286.296 420.459 282.2C422.699 278.104 425.707 274.936 429.483 272.696C433.323 270.392 437.547 269.24 442.155 269.24C446.315 269.24 449.931 270.072 453.003 271.736C456.139 273.336 458.635 275.352 460.491 277.784V270.104H471.531V323H460.491V315.128C458.635 317.624 456.107 319.704 452.907 321.368C449.707 323.032 446.059 323.864 441.963 323.864C437.419 323.864 433.259 322.712 429.483 320.408C425.707 318.04 422.699 314.776 420.459 310.616C418.283 306.392 417.195 301.624 417.195 296.312ZM460.491 296.504C460.491 292.856 459.723 289.688 458.187 287C456.715 284.312 454.763 282.264 452.331 280.856C449.899 279.448 447.275 278.744 444.459 278.744C441.643 278.744 439.019 279.448 436.587 280.856C434.155 282.2 432.171 284.216 430.635 286.904C429.163 289.528 428.427 292.664 428.427 296.312C428.427 299.96 429.163 303.16 430.635 305.912C432.171 308.664 434.155 310.776 436.587 312.248C439.083 313.656 441.707 314.36 444.459 314.36C447.275 314.36 449.899 313.656 452.331 312.248C454.763 310.84 456.715 308.792 458.187 306.104C459.723 303.352 460.491 300.152 460.491 296.504ZM481.297 296.312C481.297 291 482.385 286.296 484.561 282.2C486.801 278.104 489.809 274.936 493.585 272.696C497.425 270.392 501.681 269.24 506.353 269.24C509.809 269.24 513.201 270.008 516.529 271.544C519.921 273.016 522.609 275 524.593 277.496V251.96H535.633V323H524.593V315.032C522.801 317.592 520.305 319.704 517.105 321.368C513.969 323.032 510.353 323.864 506.257 323.864C501.649 323.864 497.425 322.712 493.585 320.408C489.809 318.04 486.801 314.776 484.561 310.616C482.385 306.392 481.297 301.624 481.297 296.312ZM524.593 296.504C524.593 292.856 523.825 289.688 522.289 287C520.817 284.312 518.865 282.264 516.433 280.856C514.001 279.448 511.377 278.744 508.561 278.744C505.745 278.744 503.121 279.448 500.689 280.856C498.257 282.2 496.273 284.216 494.737 286.904C493.265 289.528 492.529 292.664 492.529 296.312C492.529 299.96 493.265 303.16 494.737 305.912C496.273 308.664 498.257 310.776 500.689 312.248C503.185 313.656 505.809 314.36 508.561 314.36C511.377 314.36 514.001 313.656 516.433 312.248C518.865 310.84 520.817 308.792 522.289 306.104C523.825 303.352 524.593 300.152 524.593 296.504ZM597.528 295.256C597.528 297.24 597.4 299.032 597.144 300.632H556.728C557.048 304.856 558.616 308.248 561.432 310.808C564.248 313.368 567.704 314.648 571.8 314.648C577.688 314.648 581.848 312.184 584.28 307.256H596.088C594.488 312.12 591.576 316.12 587.352 319.256C583.192 322.328 578.008 323.864 571.8 323.864C566.744 323.864 562.2 322.744 558.168 320.504C554.2 318.2 551.064 315 548.76 310.904C546.52 306.744 545.4 301.944 545.4 296.504C545.4 291.064 546.488 286.296 548.664 282.2C550.904 278.04 554.008 274.84 557.976 272.6C562.008 270.36 566.616 269.24 571.8 269.24C576.792 269.24 581.24 270.328 585.144 272.504C589.048 274.68 592.088 277.752 594.264 281.72C596.44 285.624 597.528 290.136 597.528 295.256ZM586.104 291.8C586.04 287.768 584.6 284.536 581.784 282.104C578.968 279.672 575.48 278.456 571.32 278.456C567.544 278.456 564.312 279.672 561.624 282.104C558.936 284.472 557.336 287.704 556.824 291.8H586.104ZM611.946 308.12C618.09 302.808 622.922 298.456 626.442 295.064C630.026 291.608 633.002 288.024 635.37 284.312C637.738 280.6 638.922 276.888 638.922 273.176C638.922 269.336 637.994 266.328 636.138 264.152C634.346 261.976 631.498 260.888 627.594 260.888C623.818 260.888 620.874 262.104 618.762 264.536C616.714 266.904 615.626 270.104 615.498 274.136H604.938C605.13 266.84 607.306 261.272 611.466 257.432C615.69 253.528 621.034 251.576 627.498 251.576C634.474 251.576 639.914 253.496 643.818 257.336C647.786 261.176 649.77 266.296 649.77 272.696C649.77 277.304 648.586 281.752 646.218 286.04C643.914 290.264 641.13 294.072 637.866 297.464C634.666 300.792 630.57 304.664 625.578 309.08L621.258 312.92H651.69V322.04H605.034V314.072L611.946 308.12ZM659 308.408V300.152L691.256 253.88H704.504V298.904H713.432V308.408H704.504V323H693.752V308.408H659ZM694.232 265.016L671.576 298.904H694.232V265.016ZM727.396 323.672C725.412 323.672 723.748 323 722.404 321.656C721.06 320.312 720.388 318.648 720.388 316.664C720.388 314.68 721.06 313.016 722.404 311.672C723.748 310.328 725.412 309.656 727.396 309.656C729.316 309.656 730.948 310.328 732.292 311.672C733.636 313.016 734.308 314.68 734.308 316.664C734.308 318.648 733.636 320.312 732.292 321.656C730.948 323 729.316 323.672 727.396 323.672ZM741.528 296.312C741.528 291 742.616 286.296 744.792 282.2C747.032 278.104 750.04 274.936 753.816 272.696C757.656 270.392 761.88 269.24 766.488 269.24C770.648 269.24 774.264 270.072 777.336 271.736C780.472 273.336 782.968 275.352 784.824 277.784V270.104H795.864V323H784.824V315.128C782.968 317.624 780.44 319.704 777.24 321.368C774.04 323.032 770.392 323.864 766.296 323.864C761.752 323.864 757.592 322.712 753.816 320.408C750.04 318.04 747.032 314.776 744.792 310.616C742.616 306.392 741.528 301.624 741.528 296.312ZM784.824 296.504C784.824 292.856 784.056 289.688 782.52 287C781.048 284.312 779.096 282.264 776.664 280.856C774.232 279.448 771.608 278.744 768.792 278.744C765.976 278.744 763.352 279.448 760.92 280.856C758.488 282.2 756.504 284.216 754.968 286.904C753.496 289.528 752.76 292.664 752.76 296.312C752.76 299.96 753.496 303.16 754.968 305.912C756.504 308.664 758.488 310.776 760.92 312.248C763.416 313.656 766.04 314.36 768.792 314.36C771.608 314.36 774.232 313.656 776.664 312.248C779.096 310.84 781.048 308.792 782.52 306.104C784.056 303.352 784.824 300.152 784.824 296.504ZM814.847 263.096C812.863 263.096 811.199 262.424 809.855 261.08C808.511 259.736 807.839 258.072 807.839 256.088C807.839 254.104 808.511 252.44 809.855 251.096C811.199 249.752 812.863 249.08 814.847 249.08C816.767 249.08 818.399 249.752 819.743 251.096C821.087 252.44 821.759 254.104 821.759 256.088C821.759 258.072 821.087 259.736 819.743 261.08C818.399 262.424 816.767 263.096 814.847 263.096ZM820.223 270.104V323H809.279V270.104H820.223Z" fill="white"/>
<path d="M146.669 308.12C152.813 302.808 157.645 298.456 161.165 295.064C164.749 291.608 167.725 288.024 170.093 284.312C172.461 280.6 173.645 276.888 173.645 273.176C173.645 269.336 172.717 266.328 170.861 264.152C169.069 261.976 166.221 260.888 162.317 260.888C158.541 260.888 155.597 262.104 153.485 264.536C151.437 266.904 150.349 270.104 150.221 274.136H139.661C139.853 266.84 142.029 261.272 146.189 257.432C150.413 253.528 155.757 251.576 162.221 251.576C169.197 251.576 174.637 253.496 178.541 257.336C182.509 261.176 184.493 266.296 184.493 272.696C184.493 277.304 183.309 281.752 180.941 286.04C178.637 290.264 175.853 294.072 172.589 297.464C169.389 300.792 165.293 304.664 160.301 309.08L155.981 312.92H186.413V322.04H139.757V314.072L146.669 308.12ZM189.883 308.408V300.152L222.139 253.88H235.387V298.904H244.315V308.408H235.387V323H224.635V308.408H189.883ZM225.115 265.016L202.459 298.904H225.115V265.016Z" fill="url(#paint0_linear_44_218)"/>
<path d="M161.535 231.065C214.446 209.211 266.447 229.018 280.012 280.526" stroke="url(#paint1_angular_44_218)" stroke-width="7" stroke-linecap="round" stroke-linejoin="round"/>
<path d="M270.623 313.221C166.451 440.419 30.4157 315.539 135.506 246" stroke="url(#paint2_angular_44_218)" stroke-width="7" stroke-linecap="round" stroke-linejoin="round"/>
<path d="M258.623 311C248.238 431.687 136.315 378.814 123.623 322.494" stroke="url(#paint3_angular_44_218)" stroke-width="7" stroke-linecap="round" stroke-linejoin="round"/>
<circle cx="122.623" cy="314" r="9" fill="#2F0DFF"/>
<path d="M256.355 260.246C254.396 250.627 250.589 241.483 245.151 233.335C239.712 225.187 232.748 218.196 224.657 212.76C216.566 207.324 207.506 203.549 197.994 201.652C188.482 199.755 178.705 199.773 169.221 201.704C159.737 203.635 150.731 207.441 142.718 212.906C134.706 218.371 127.842 225.387 122.521 233.554C117.199 241.721 113.523 250.879 111.703 260.504C109.883 270.13 109.954 280.034 111.912 289.653" stroke="url(#paint4_angular_44_218)" stroke-width="7" stroke-linecap="round"/>
<defs>
<linearGradient id="paint0_linear_44_218" x1="134.623" y1="249" x2="249.808" y2="326.763" gradientUnits="userSpaceOnUse">
<stop stop-color="#2F0DFF"/>
<stop offset="1" stop-color="#EB00FF"/>
</linearGradient>
<radialGradient id="paint1_angular_44_218" cx="0" cy="0" r="1" gradientUnits="userSpaceOnUse" gradientTransform="translate(216.747 255.796) rotate(22.249) scale(68.3518 42.8176)">
<stop offset="0.478015" stop-color="#060028" stop-opacity="0"/>
<stop offset="0.987794" stop-color="#EB00FF"/>
</radialGradient>
<radialGradient id="paint2_angular_44_218" cx="0" cy="0" r="1" gradientUnits="userSpaceOnUse" gradientTransform="translate(180.594 293.394) rotate(-69.0595) scale(68.525 89.7414)">
<stop offset="0.197972" stop-color="#EB00FF"/>
<stop offset="0.983388" stop-color="#060028" stop-opacity="0"/>
</radialGradient>
<radialGradient id="paint3_angular_44_218" cx="0" cy="0" r="1" gradientUnits="userSpaceOnUse" gradientTransform="translate(194.008 327.092) rotate(177.149) scale(69.3166 57.9714)">
<stop offset="0.515935" stop-color="#060028" stop-opacity="0"/>
<stop offset="0.990018" stop-color="#2F0DFF"/>
</radialGradient>
<radialGradient id="paint4_angular_44_218" cx="0" cy="0" r="1" gradientUnits="userSpaceOnUse" gradientTransform="translate(165.881 237.972) rotate(63.7286) scale(41.2368 81.3201)">
<stop offset="0.149754" stop-color="#2F0DFF"/>
<stop offset="0.915519" stop-color="#150E41" stop-opacity="0"/>
</radialGradient>
</defs>
</svg>
