<svg viewBox="0 0 730 206" fill="none" xmlns="http://www.w3.org/2000/svg">
<path d="M270.968 97.032V126.312C270.968 128.296 271.416 129.736 272.312 130.632C273.272 131.464 274.872 131.88 277.112 131.88H283.832V141H275.192C270.264 141 266.488 139.848 263.864 137.544C261.24 135.24 259.928 131.496 259.928 126.312V97.032H253.688V88.104H259.928V74.952H270.968V88.104H283.832V97.032H270.968Z" fill="white"/>
<path d="M303.902 95.784C305.502 93.096 307.614 91.016 310.238 89.544C312.926 88.008 316.094 87.24 319.742 87.24V98.568H316.958C312.67 98.568 309.406 99.656 307.166 101.832C304.99 104.008 303.902 107.784 303.902 113.16V141H292.958V88.104H303.902V95.784Z" fill="white"/>
<path d="M325.194 114.312C325.194 109 326.282 104.296 328.458 100.2C330.698 96.104 333.706 92.936 337.482 90.696C341.322 88.392 345.546 87.24 350.154 87.24C354.314 87.24 357.93 88.072 361.002 89.736C364.138 91.336 366.634 93.352 368.49 95.784V88.104H379.53V141H368.49V133.128C366.634 135.624 364.106 137.704 360.906 139.368C357.706 141.032 354.058 141.864 349.962 141.864C345.418 141.864 341.258 140.712 337.482 138.408C333.706 136.04 330.698 132.776 328.458 128.616C326.282 124.392 325.194 119.624 325.194 114.312ZM368.49 114.504C368.49 110.856 367.722 107.688 366.186 105C364.714 102.312 362.762 100.264 360.33 98.856C357.898 97.448 355.274 96.744 352.458 96.744C349.642 96.744 347.018 97.448 344.586 98.856C342.154 100.2 340.17 102.216 338.634 104.904C337.162 107.528 336.426 110.664 336.426 114.312C336.426 117.96 337.162 121.16 338.634 123.912C340.17 126.664 342.154 128.776 344.586 130.248C347.082 131.656 349.706 132.36 352.458 132.36C355.274 132.36 357.898 131.656 360.33 130.248C362.762 128.84 364.714 126.792 366.186 124.104C367.722 121.352 368.49 118.152 368.49 114.504Z" fill="white"/>
<path d="M389.296 114.312C389.296 109 390.384 104.296 392.56 100.2C394.8 96.104 397.808 92.936 401.584 90.696C405.424 88.392 409.68 87.24 414.352 87.24C417.809 87.24 421.2 88.008 424.528 89.544C427.92 91.016 430.608 93 432.592 95.496V69.96H443.632V141H432.592V133.032C430.8 135.592 428.304 137.704 425.104 139.368C421.968 141.032 418.353 141.864 414.257 141.864C409.648 141.864 405.424 140.712 401.584 138.408C397.808 136.04 394.8 132.776 392.56 128.616C390.384 124.392 389.296 119.624 389.296 114.312ZM432.592 114.504C432.592 110.856 431.824 107.688 430.288 105C428.816 102.312 426.865 100.264 424.432 98.856C422 97.448 419.376 96.744 416.56 96.744C413.744 96.744 411.12 97.448 408.688 98.856C406.256 100.2 404.272 102.216 402.736 104.904C401.264 107.528 400.528 110.664 400.528 114.312C400.528 117.96 401.264 121.16 402.736 123.912C404.272 126.664 406.256 128.776 408.688 130.248C411.184 131.656 413.808 132.36 416.56 132.36C419.376 132.36 422 131.656 424.432 130.248C426.865 128.84 428.816 126.792 430.288 124.104C431.824 121.352 432.592 118.152 432.592 114.504Z" fill="white"/>
<path d="M505.527 113.256C505.527 115.24 505.399 117.032 505.143 118.632H464.727C465.047 122.856 466.615 126.248 469.431 128.808C472.247 131.368 475.703 132.648 479.799 132.648C485.687 132.648 489.847 130.184 492.279 125.256H504.087C502.487 130.12 499.575 134.12 495.351 137.256C491.191 140.328 486.007 141.864 479.799 141.864C474.743 141.864 470.199 140.744 466.167 138.504C462.199 136.2 459.063 133 456.759 128.904C454.519 124.744 453.399 119.944 453.399 114.504C453.399 109.064 454.487 104.296 456.663 100.2C458.903 96.04 462.007 92.84 465.975 90.6C470.007 88.36 474.615 87.24 479.799 87.24C484.791 87.24 489.239 88.328 493.143 90.504C497.047 92.68 500.087 95.752 502.263 99.72C504.439 103.624 505.527 108.136 505.527 113.256ZM494.103 109.8C494.039 105.768 492.599 102.536 489.783 100.104C486.967 97.672 483.479 96.456 479.319 96.456C475.543 96.456 472.311 97.672 469.623 100.104C466.935 102.472 465.335 105.704 464.823 109.8H494.103Z" fill="white"/>
<path d="M519.945 126.12C526.089 120.808 530.921 116.456 534.441 113.064C538.025 109.608 541.001 106.024 543.369 102.312C545.737 98.6 546.921 94.888 546.921 91.176C546.921 87.336 545.993 84.328 544.137 82.152C542.345 79.976 539.497 78.888 535.593 78.888C531.817 78.888 528.873 80.104 526.761 82.536C524.713 84.904 523.625 88.104 523.497 92.136H512.937C513.129 84.84 515.305 79.272 519.465 75.432C523.689 71.528 529.033 69.576 535.497 69.576C542.473 69.576 547.913 71.496 551.817 75.336C555.785 79.176 557.769 84.296 557.769 90.696C557.769 95.304 556.585 99.752 554.217 104.04C551.913 108.264 549.129 112.072 545.865 115.464C542.665 118.792 538.569 122.664 533.577 127.08L529.257 130.92H559.689V140.04H513.033V132.072L519.945 126.12Z" fill="white"/>
<path d="M566.999 126.408V118.152L599.255 71.88H612.503V116.904H621.431V126.408H612.503V141H601.751V126.408H566.999ZM602.231 83.016L579.575 116.904H602.231V83.016Z" fill="white"/>
<path d="M635.396 141.672C633.411 141.672 631.747 141 630.404 139.656C629.06 138.312 628.388 136.648 628.388 134.664C628.388 132.68 629.06 131.016 630.404 129.672C631.747 128.328 633.411 127.656 635.396 127.656C637.316 127.656 638.948 128.328 640.292 129.672C641.635 131.016 642.308 132.68 642.308 134.664C642.308 136.648 641.635 138.312 640.292 139.656C638.948 141 637.316 141.672 635.396 141.672Z" fill="white"/>
<path d="M649.528 114.312C649.528 109 650.616 104.296 652.792 100.2C655.032 96.104 658.04 92.936 661.816 90.696C665.656 88.392 669.88 87.24 674.488 87.24C678.648 87.24 682.264 88.072 685.336 89.736C688.472 91.336 690.968 93.352 692.824 95.784V88.104H703.864V141H692.824V133.128C690.968 135.624 688.44 137.704 685.24 139.368C682.04 141.032 678.392 141.864 674.296 141.864C669.752 141.864 665.592 140.712 661.816 138.408C658.04 136.04 655.032 132.776 652.792 128.616C650.616 124.392 649.528 119.624 649.528 114.312ZM692.824 114.504C692.824 110.856 692.056 107.688 690.52 105C689.048 102.312 687.096 100.264 684.664 98.856C682.232 97.448 679.608 96.744 676.792 96.744C673.976 96.744 671.352 97.448 668.92 98.856C666.488 100.2 664.504 102.216 662.968 104.904C661.496 107.528 660.76 110.664 660.76 114.312C660.76 117.96 661.496 121.16 662.968 123.912C664.504 126.664 666.488 128.776 668.92 130.248C671.416 131.656 674.04 132.36 676.792 132.36C679.608 132.36 682.232 131.656 684.664 130.248C687.096 128.84 689.048 126.792 690.52 124.104C692.056 121.352 692.824 118.152 692.824 114.504Z" fill="white"/>
<path d="M722.846 81.096C720.862 81.096 719.198 80.424 717.854 79.08C716.51 77.736 715.838 76.072 715.838 74.088C715.838 72.104 716.51 70.44 717.854 69.096C719.198 67.752 720.862 67.08 722.846 67.08C724.766 67.08 726.398 67.752 727.742 69.096C729.086 70.44 729.758 72.104 729.758 74.088C729.758 76.072 729.086 77.736 727.742 79.08C726.398 80.424 724.766 81.096 722.846 81.096ZM728.222 88.104V141H717.278V88.104H728.222Z" fill="white"/>
<path d="M54.6721 126.12C60.8161 120.808 65.6481 116.456 69.1681 113.064C72.7521 109.608 75.7281 106.024 78.0961 102.312C80.4641 98.5999 81.6481 94.8879 81.6481 91.1759C81.6481 87.3359 80.7201 84.3279 78.8641 82.1519C77.0721 79.9759 74.2241 78.8879 70.3201 78.8879C66.5441 78.8879 63.6001 80.1039 61.4881 82.5359C59.4401 84.9039 58.3521 88.1039 58.2241 92.1359H47.6641C47.8561 84.8399 50.0321 79.2719 54.1921 75.4319C58.4161 71.5279 63.7601 69.5759 70.2241 69.5759C77.2001 69.5759 82.6401 71.4959 86.5441 75.3359C90.5121 79.1759 92.4961 84.2959 92.4961 90.6959C92.4961 95.3039 91.3121 99.7519 88.9441 104.04C86.6401 108.264 83.8561 112.072 80.5921 115.464C77.3921 118.792 73.2961 122.664 68.3041 127.08L63.9841 130.92H94.4161V140.04H47.7601V132.072L54.6721 126.12Z" fill="url(#paint0_linear_84_2583)"/>
<path d="M97.8863 126.408V118.152L130.142 71.8799H143.39V116.904H152.318V126.408H143.39V141H132.638V126.408H97.8863ZM133.118 83.0159L110.462 116.904H133.118V83.0159Z" fill="url(#paint1_linear_84_2583)"/>
<path fill-rule="evenodd" clip-rule="evenodd" d="M188.908 101.91C187.038 102.402 185.124 101.286 184.632 99.4168C178.122 74.6984 162.476 57.7594 142.216 49.5273C121.892 41.2697 96.627 41.6643 70.8758 52.3004C69.0892 53.0383 67.0427 52.1882 66.3048 50.4016C65.5669 48.615 66.417 46.5684 68.2036 45.8305C95.3637 34.6125 122.555 33.9832 144.851 43.0422C167.209 52.1266 184.346 70.8447 191.401 97.6342C191.893 99.5035 190.777 101.418 188.908 101.91Z" fill="url(#paint2_angular_84_2583)"/>
<path fill-rule="evenodd" clip-rule="evenodd" d="M46.4271 62.0686C47.4938 63.6806 47.0517 65.8522 45.4397 66.9189C19.8712 83.8375 9.50363 103.723 9.13529 121.798C8.76539 139.951 18.4533 157.08 34.6166 168.531C66.7032 191.263 124.741 191.491 175.917 129.003C177.142 127.507 179.347 127.288 180.843 128.513C182.338 129.738 182.558 131.943 181.333 133.438C128.337 198.148 66.2714 199.536 30.57 174.242C12.8392 161.681 1.71196 142.501 2.13675 121.656C2.5631 100.733 14.6 78.9318 41.5769 61.0812C43.1889 60.0145 45.3604 60.4566 46.4271 62.0686Z" fill="url(#paint3_angular_84_2583)"/>
<path fill-rule="evenodd" clip-rule="evenodd" d="M166.926 125.513C168.852 125.679 170.279 127.374 170.113 129.3C167.474 159.966 158.333 180.268 145.3 192.211C132.19 204.225 115.667 207.3 99.4127 204.576C83.2248 201.864 67.1366 193.397 54.2963 182.053C41.4716 170.722 31.5891 156.251 28.2114 141.263C27.7864 139.378 28.9706 137.505 30.8563 137.08C32.742 136.655 34.6152 137.839 35.0401 139.724C38.0086 152.897 46.876 166.156 58.9312 176.807C70.9707 187.444 85.8921 195.213 100.57 197.673C115.181 200.121 129.379 197.306 140.571 187.05C151.841 176.723 160.585 158.378 163.139 128.7C163.304 126.774 165 125.347 166.926 125.513Z" fill="url(#paint4_angular_84_2583)"/>
<path d="M39.625 132C39.625 136.971 35.5956 141 30.625 141C25.6544 141 21.625 136.971 21.625 132C21.625 127.029 25.6544 123 30.625 123C35.5956 123 39.625 127.029 39.625 132Z" fill="#2F0DFF"/>
<path fill-rule="evenodd" clip-rule="evenodd" d="M48.7493 28.0145C57.1459 22.2879 66.5845 18.298 76.5258 16.274C86.4672 14.25 96.7144 14.232 106.682 16.2199C116.649 18.2077 126.139 22.162 134.612 27.8545C143.084 33.5469 150.373 40.8658 156.064 49.3918C161.756 57.9176 165.739 67.4848 167.787 77.5473C168.173 79.4415 166.95 81.2896 165.056 81.6752C163.162 82.0609 161.314 80.838 160.928 78.9438C159.06 69.7688 155.429 61.0475 150.242 53.2781C145.056 45.5087 138.418 38.8447 130.708 33.6649C122.998 28.4851 114.369 24.8908 105.313 23.0847C96.2564 21.2785 86.9494 21.2954 77.9223 23.1333C68.8953 24.9712 60.3225 28.5944 52.6934 33.7976C45.0642 39.0008 38.5268 45.683 33.4561 53.4647C28.3853 61.2466 24.8808 69.9757 23.1451 79.1543C21.4094 88.3329 21.4769 97.7798 23.3449 106.955C23.7305 108.849 22.5076 110.697 20.6135 111.083C18.7193 111.468 16.8712 110.245 16.4856 108.351C14.4369 98.2888 14.3623 87.9259 16.267 77.8536C18.1717 67.7812 22.0188 58.195 27.5913 49.6432C33.1639 41.0912 40.3528 33.7411 48.7493 28.0145Z" fill="url(#paint5_angular_84_2583)"/>
<defs>
<linearGradient id="paint0_linear_84_2583" x1="42.627" y1="66.9999" x2="157.812" y2="144.763" gradientUnits="userSpaceOnUse">
<stop stop-color="#2F0DFF"/>
<stop offset="1" stop-color="#EB00FF"/>
</linearGradient>
<linearGradient id="paint1_linear_84_2583" x1="42.627" y1="66.9999" x2="157.812" y2="144.763" gradientUnits="userSpaceOnUse">
<stop stop-color="#2F0DFF"/>
<stop offset="1" stop-color="#EB00FF"/>
</linearGradient>
<radialGradient id="paint2_angular_84_2583" cx="0" cy="0" r="1" gradientUnits="userSpaceOnUse" gradientTransform="translate(124.751 73.7958) rotate(22.249) scale(68.3518 42.8176)">
<stop offset="0.478015" stop-color="#060028" stop-opacity="0"/>
<stop offset="0.987794" stop-color="#EB00FF"/>
</radialGradient>
<radialGradient id="paint3_angular_84_2583" cx="0" cy="0" r="1" gradientUnits="userSpaceOnUse" gradientTransform="translate(88.5958 111.394) rotate(-69.0595) scale(68.525 89.7414)">
<stop offset="0.197972" stop-color="#EB00FF"/>
<stop offset="0.983388" stop-color="#060028" stop-opacity="0"/>
</radialGradient>
<radialGradient id="paint4_angular_84_2583" cx="0" cy="0" r="1" gradientUnits="userSpaceOnUse" gradientTransform="translate(102.01 145.092) rotate(177.149) scale(69.3166 57.9714)">
<stop offset="0.515935" stop-color="#060028" stop-opacity="0"/>
<stop offset="0.990018" stop-color="#2F0DFF"/>
</radialGradient>
<radialGradient id="paint5_angular_84_2583" cx="0" cy="0" r="1" gradientUnits="userSpaceOnUse" gradientTransform="translate(73.884 55.972) rotate(63.7286) scale(41.2368 81.3201)">
<stop offset="0.149754" stop-color="#2F0DFF"/>
<stop offset="0.915519" stop-color="#150E41" stop-opacity="0"/>
</radialGradient>
</defs>
</svg>
