<svg width="431" height="443" viewBox="0 0 431 443" fill="none" xmlns="http://www.w3.org/2000/svg">
<path d="M116.345 271.592C129.693 260.005 140.192 250.513 147.839 243.114C155.626 235.575 162.092 227.758 167.236 219.661C172.381 211.564 174.954 203.467 174.954 195.371C174.954 186.995 172.937 180.433 168.905 175.687C165.012 170.941 158.824 168.567 150.342 168.567C142.138 168.567 135.742 171.22 131.153 176.525C126.704 181.69 124.34 188.67 124.062 197.465H101.119C101.536 181.55 106.264 169.405 115.302 161.029C124.479 152.513 136.09 148.256 150.134 148.256C165.29 148.256 177.109 152.444 185.591 160.82C194.212 169.196 198.522 180.364 198.522 194.324C198.522 204.375 195.95 214.077 190.805 223.43C185.799 232.644 179.751 240.95 172.659 248.349C165.707 255.608 156.808 264.054 145.962 273.686L136.576 282.062H202.694V301.955H101.328V284.575L116.345 271.592Z" fill="url(#paint0_linear_44_201)"/>
<path d="M210.233 272.22V254.212L280.313 153.281H309.096V251.49H328.493V272.22H309.096V304.049H285.736V272.22H210.233ZM286.779 177.572L237.556 251.49H286.779V177.572Z" fill="url(#paint1_linear_44_201)"/>
<path fill-rule="evenodd" clip-rule="evenodd" d="M407.086 218.739C403.039 219.805 398.894 217.388 397.829 213.342C383.736 159.828 349.864 123.156 306.001 105.335C262.002 87.4577 207.305 88.3121 151.556 111.338C147.688 112.936 143.258 111.095 141.66 107.227C140.063 103.36 141.903 98.9291 145.771 97.3315C204.571 73.0455 263.437 71.6831 311.706 91.2949C360.111 110.962 397.21 151.485 412.484 209.482C413.549 213.529 411.133 217.674 407.086 218.739Z" fill="url(#paint2_angular_44_201)"/>
<path fill-rule="evenodd" clip-rule="evenodd" d="M98.9046 132.003C101.217 135.493 100.259 140.194 96.7641 142.504C41.3395 179.132 18.8657 222.184 18.0673 261.317C17.2654 300.617 38.2658 337.701 73.3029 362.493C142.857 411.708 268.666 412.202 379.6 276.915C382.255 273.678 387.035 273.203 390.277 275.854C393.518 278.506 393.994 283.28 391.339 286.518C276.461 426.615 141.921 429.618 64.5311 374.859C26.0963 347.663 1.97576 306.139 2.89656 261.009C3.82075 215.712 29.9131 168.512 88.3907 129.865C91.8851 127.556 96.5923 128.513 98.9046 132.003Z" fill="url(#paint3_angular_44_201)"/>
<path fill-rule="evenodd" clip-rule="evenodd" d="M359.462 270.392C363.631 270.75 366.719 274.409 366.361 278.565C360.649 344.741 340.863 388.554 312.652 414.326C284.272 440.251 248.506 446.888 213.323 441.01C178.282 435.156 143.457 416.886 115.663 392.404C87.9029 367.952 66.511 336.725 59.1997 304.382C58.2798 300.312 60.8431 296.27 64.9249 295.353C69.0067 294.436 73.0614 296.991 73.9812 301.061C80.4068 329.486 99.6013 358.099 125.696 381.084C151.757 404.039 184.056 420.804 215.827 426.112C247.455 431.396 278.188 425.32 302.415 403.189C326.81 380.903 345.737 341.314 351.264 277.27C351.623 273.114 355.293 270.035 359.462 270.392Z" fill="url(#paint4_angular_44_201)"/>
<path d="M430.952 227.556C430.952 238.021 422.154 246.504 411.302 246.504C400.45 246.504 391.652 238.021 391.652 227.556C391.652 217.091 400.45 208.608 411.302 208.608C422.154 208.608 430.952 217.091 430.952 227.556Z" fill="#EB00FF"/>
<path d="M84.2768 284.4C84.2768 295.252 75.4794 304.049 64.6272 304.049C53.775 304.049 44.9775 295.252 44.9775 284.4C44.9775 273.547 53.775 264.75 64.6272 264.75C75.4794 264.75 84.2768 273.547 84.2768 284.4Z" fill="#2F0DFF"/>
<path fill-rule="evenodd" clip-rule="evenodd" d="M103.658 58.7614C121.836 46.3637 142.269 37.726 163.792 33.3442C185.314 28.9624 207.498 28.9234 229.076 33.227C250.654 37.5305 271.2 46.0913 289.543 58.415C307.885 70.7385 323.665 86.5835 335.986 105.041C348.307 123.499 356.93 144.211 361.365 165.996C362.2 170.097 359.553 174.098 355.452 174.932C351.351 175.767 347.35 173.12 346.515 169.019C342.471 149.156 334.61 130.275 323.382 113.455C312.154 96.635 297.782 82.208 281.092 70.994C264.401 59.7802 245.718 51.9989 226.112 48.0887C206.507 44.1786 186.358 44.2152 166.815 48.194C147.272 52.1728 128.713 60.0169 112.196 71.2813C95.6798 82.5458 81.5267 97.0122 70.5491 113.859C59.5713 130.706 51.9842 149.604 48.2266 169.475C44.4689 189.346 44.6151 209.798 48.6591 229.661C49.494 233.761 46.8465 237.762 42.7459 238.597C38.6452 239.432 34.6442 236.785 33.8093 232.684C29.3741 210.9 29.2125 188.465 33.3361 166.659C37.4596 144.853 45.7884 124.1 57.8523 105.586C69.9165 87.0714 85.4798 71.1589 103.658 58.7614Z" fill="url(#paint5_angular_44_201)"/>
<defs>
<linearGradient id="paint0_linear_44_201" x1="90.1743" y1="142.637" x2="341.048" y2="311.336" gradientUnits="userSpaceOnUse">
<stop stop-color="#2F0DFF"/>
<stop offset="1" stop-color="#EB00FF"/>
</linearGradient>
<linearGradient id="paint1_linear_44_201" x1="90.1743" y1="142.637" x2="341.048" y2="311.336" gradientUnits="userSpaceOnUse">
<stop stop-color="#2F0DFF"/>
<stop offset="1" stop-color="#EB00FF"/>
</linearGradient>
<radialGradient id="paint2_angular_44_201" cx="0" cy="0" r="1" gradientUnits="userSpaceOnUse" gradientTransform="translate(268.193 157.874) rotate(22.249) scale(147.976 92.6967)">
<stop offset="0.478015" stop-color="#060028" stop-opacity="0"/>
<stop offset="0.987794" stop-color="#EB00FF"/>
</radialGradient>
<radialGradient id="paint3_angular_44_201" cx="0" cy="0" r="1" gradientUnits="userSpaceOnUse" gradientTransform="translate(190.313 238.792) rotate(-69.0357) scale(148.38 194.501)">
<stop offset="0.197972" stop-color="#EB00FF"/>
<stop offset="0.983388" stop-color="#060028" stop-opacity="0"/>
</radialGradient>
<radialGradient id="paint4_angular_44_201" cx="0" cy="0" r="1" gradientUnits="userSpaceOnUse" gradientTransform="translate(218.946 312.643) rotate(177.157) scale(150.042 125.102)">
<stop offset="0.515935" stop-color="#060028" stop-opacity="0"/>
<stop offset="0.990018" stop-color="#2F0DFF"/>
</radialGradient>
<radialGradient id="paint5_angular_44_201" cx="0" cy="0" r="1" gradientUnits="userSpaceOnUse" gradientTransform="translate(158.072 119.287) rotate(63.7286) scale(89.2744 176.051)">
<stop offset="0.149754" stop-color="#2F0DFF"/>
<stop offset="0.915519" stop-color="#150E41" stop-opacity="0"/>
</radialGradient>
</defs>
</svg>
